<svg xmlns="http://www.w3.org/2000/svg" viewBox="0 0 192 192" role="img" aria-label="Sebco Travels">
  <defs>
    <linearGradient id="icSwoosh" x1="0" y1="0" x2="1" y2="1">
      <stop offset="0%"   stop-color="#0F2A8A"/>
      <stop offset="40%"  stop-color="#1E5BD6"/>
      <stop offset="70%"  stop-color="#28B8D6"/>
      <stop offset="100%" stop-color="#7FE5EE"/>
    </linearGradient>
    <linearGradient id="icCaseBody" x1="0" y1="0" x2="0" y2="1">
      <stop offset="0%"   stop-color="#1734A0"/>
      <stop offset="100%" stop-color="#0F2578"/>
    </linearGradient>
    <linearGradient id="icCaseSide" x1="0" y1="0" x2="0" y2="1">
      <stop offset="0%"   stop-color="#28B8D6"/>
      <stop offset="100%" stop-color="#1E8FB5"/>
    </linearGradient>
  </defs>
  <rect width="192" height="192" rx="36" ry="36" fill="#FFFFFF"/>
  <g transform="translate(20, 20)">
    <path d="M 120 28
             C 120 12, 95 0, 70 6
             C 35 14, 14 38, 12 76
             C 10 114, 32 148, 70 158
             C 95 168, 120 158, 122 144
             C 124 134, 116 126, 108 128
             C 92 130, 84 138, 68 138
             C 52 138, 42 126, 42 108
             C 42 88, 56 74, 78 70
             C 92 68, 104 70, 108 60
             C 112 50, 110 36, 120 28 Z"
          fill="url(#icSwoosh)"/>
  </g>
  <g transform="translate(105, 50) rotate(-12)">
    <path d="M 0 12 L 44 9 C 49 9, 52 11, 52 13 C 52 16, 49 18, 44 18 L 0 15 Z" fill="#28B8D6"/>
    <path d="M 0 12 L -7 2 L 2 0 L 7 8 Z" fill="#28B8D6"/>
    <path d="M 17 11 L 28 5 L 32 7 L 21 13 Z" fill="#1E8FB5"/>
  </g>
  <g transform="translate(118, 88)">
    <path d="M 10 2 C 10 -2, 24 -2, 24 2" fill="none" stroke="#0F2578" stroke-width="3" stroke-linecap="round"/>
    <rect x="0" y="5" width="34" height="34" rx="3" ry="3" fill="url(#icCaseBody)"/>
    <rect x="24" y="5" width="10" height="34" fill="url(#icCaseSide)"/>
  </g>
</svg>
