<svg xmlns="http://www.w3.org/2000/svg" viewBox="0 0 880 720" role="img" aria-label="Sebco Travels">
  <defs>
    <linearGradient id="swooshGrad" x1="0" y1="0" x2="1" y2="1">
      <stop offset="0%"   stop-color="#0F2A8A"/>
      <stop offset="40%"  stop-color="#1E5BD6"/>
      <stop offset="70%"  stop-color="#28B8D6"/>
      <stop offset="100%" stop-color="#7FE5EE"/>
    </linearGradient>
    <linearGradient id="sebcoText" x1="0" y1="0" x2="1" y2="0">
      <stop offset="0%"   stop-color="#1E2A8A"/>
      <stop offset="28%"  stop-color="#3A33B5"/>
      <stop offset="55%"  stop-color="#7A3AC8"/>
      <stop offset="78%"  stop-color="#C44A8A"/>
      <stop offset="100%" stop-color="#F2784B"/>
    </linearGradient>
    <linearGradient id="travelsText" x1="0" y1="0" x2="1" y2="0">
      <stop offset="0%"   stop-color="#7A3AC8"/>
      <stop offset="50%"  stop-color="#C44A8A"/>
      <stop offset="100%" stop-color="#F2784B"/>
    </linearGradient>
    <linearGradient id="caseSide" x1="0" y1="0" x2="0" y2="1">
      <stop offset="0%"   stop-color="#28B8D6"/>
      <stop offset="100%" stop-color="#1E8FB5"/>
    </linearGradient>
    <linearGradient id="caseBody" x1="0" y1="0" x2="0" y2="1">
      <stop offset="0%"   stop-color="#1734A0"/>
      <stop offset="100%" stop-color="#0F2578"/>
    </linearGradient>
  </defs>

  <path d="M 460 175
           C 460 110, 375 75, 290 95
           C 185 120, 120 200, 115 320
           C 110 445, 180 555, 290 595
           C 375 625, 455 600, 460 545
           C 462 510, 435 485, 405 490
           C 350 500, 320 525, 275 525
           C 220 525, 190 480, 190 415
           C 190 350, 225 305, 290 290
           C 340 282, 390 290, 405 260
           C 418 228, 408 178, 460 175 Z"
        fill="url(#swooshGrad)"/>

  <g transform="translate(380, 170) rotate(-12)">
    <path d="M 0 30 L 130 22 C 145 22, 152 28, 152 34 C 152 40, 145 46, 130 46 L 0 38 Z"
          fill="#28B8D6"/>
    <path d="M 0 30 L -20 4 L 4 0 L 18 22 Z" fill="#28B8D6"/>
    <path d="M 50 28 L 80 12 L 92 16 L 60 32 Z" fill="#1E8FB5"/>
    <path d="M 55 38 L 90 50 L 80 54 L 50 42 Z" fill="#1E8FB5"/>
    <circle cx="110" cy="32" r="2" fill="#FFFFFF" opacity="0.85"/>
    <circle cx="95"  cy="31" r="2" fill="#FFFFFF" opacity="0.85"/>
    <circle cx="80"  cy="30" r="2" fill="#FFFFFF" opacity="0.85"/>
    <circle cx="65"  cy="30" r="2" fill="#FFFFFF" opacity="0.85"/>
  </g>

  <g transform="translate(420, 270)">
    <path d="M 30 8 C 30 -8, 70 -8, 70 8" fill="none" stroke="#0F2578" stroke-width="9" stroke-linecap="round"/>
    <rect x="0" y="14" width="100" height="100" rx="10" ry="10" fill="url(#caseBody)"/>
    <rect x="70" y="14" width="30" height="100" rx="0" ry="0" fill="url(#caseSide)"/>
    <line x1="6" y1="22" x2="64" y2="22" stroke="#FFFFFF" stroke-width="1.5" opacity="0.25"/>
  </g>

  <g transform="translate(540, 320) rotate(20)">
    <path d="M 0 12 L 55 9 C 62 9, 65 12, 65 15 C 65 18, 62 21, 55 21 L 0 18 Z" fill="#28B8D6"/>
    <path d="M 0 12 L -8 2 L 4 0 L 12 9 Z" fill="#28B8D6"/>
    <path d="M 22 11 L 36 4 L 42 6 L 26 13 Z" fill="#1E8FB5"/>
    <path d="M 24 16 L 40 22 L 34 24 L 24 18 Z" fill="#1E8FB5"/>
  </g>

  <text x="200" y="540"
        font-family="'Brush Script MT', 'Lucida Handwriting', 'Apple Chancery', 'Segoe Script', cursive"
        font-size="180"
        font-weight="700"
        font-style="italic"
        fill="url(#sebcoText)"
        stroke="none">Sebco</text>

  <text x="380" y="680"
        font-family="'Brush Script MT', 'Lucida Handwriting', 'Apple Chancery', 'Segoe Script', cursive"
        font-size="120"
        font-weight="700"
        font-style="italic"
        fill="url(#travelsText)"
        stroke="none">Travels</text>
</svg>
